<svg height="512pt" viewBox="-50 0 512 512.00058" width="512pt" xmlns="http://www.w3.org/2000/svg" xmlns:xlink="http://www.w3.org/1999/xlink"><linearGradient id="a"><stop offset="0" stop-color="#a4508b"/><stop offset="1" stop-color="#701da0"/></linearGradient><linearGradient id="b" gradientUnits="userSpaceOnUse" x1="-276.8340914178" x2="209.363726907" xlink:href="#a" y1="241.8125839038" y2="241.8125839038"/><linearGradient id="c"><stop offset="0" stop-color="#701da0" stop-opacity="0"/><stop offset="1" stop-color="#2f004e"/></linearGradient><linearGradient id="d" gradientUnits="userSpaceOnUse" x1="179.7907949842" x2="67.845862177" xlink:href="#c" y1="575.7142301222" y2="463.769297315"/><linearGradient id="e" gradientUnits="userSpaceOnUse" x1="205.655741" x2="205.655741" y1="432.5378862482" y2="488.1778536854"><stop offset="0" stop-color="#fae4c7"/><stop offset=".1198" stop-color="#faddba"/><stop offset=".3158" stop-color="#fbd6ac"/><stop offset=".5603" stop-color="#fbd2a4"/><stop offset="1" stop-color="#fbd1a2"/></linearGradient><linearGradient id="f"><stop offset="0" stop-color="#ffbb78" stop-opacity="0"/><stop offset="1" stop-color="#ffbb78"/></linearGradient><linearGradient id="g" gradientUnits="userSpaceOnUse" x1="205.655741" x2="205.655741" xlink:href="#f" y1="457.5139597252" y2="435.757865671"/><linearGradient id="h" gradientUnits="userSpaceOnUse" x1="205.655741" x2="205.655741" xlink:href="#a" y1="34.1332476078" y2="685.120043407"/><linearGradient id="i"><stop offset="0" stop-color="#cfffb4"/><stop offset="1" stop-color="#8ee388"/></linearGradient><linearGradient id="j" gradientUnits="userSpaceOnUse" x1="148.2950512548" x2="432.1547998924" xlink:href="#i" y1="100.1068853676" y2="383.966533613"/><linearGradient id="k" gradientUnits="userSpaceOnUse" x1="148.2972598832" x2="432.1568077364" xlink:href="#i" y1="100.105078308" y2="383.9646261612"/><linearGradient id="l" gradientUnits="userSpaceOnUse" x1="49.7269775288" x2="-8.1939006924" xlink:href="#c" y1="241.8125839038" y2="241.8125839038"/><linearGradient id="m" gradientUnits="userSpaceOnUse" x1="154.5141472604" x2="67.4709977022" xlink:href="#f" y1="543.9773443284" y2="456.9342951624"/><linearGradient id="n" gradientUnits="userSpaceOnUse" x1="73.6614819308" x2="73.6614819308" xlink:href="#i" y1="458.792354" y2="508.8074468634"/><path d="m380.867188 483.625h-350.421876c-16.816406 0-30.445312-13.632812-30.445312-30.445312v-422.734376c0-16.8125 13.632812-30.445312 30.445312-30.445312h350.417969c16.816407 0 30.445313 13.632812 30.445313 30.445312v422.734376c.003906 16.8125-13.628906 30.445312-30.441406 30.445312zm0 0" fill="url(#b)"/><path d="m131.742188 483.625-28.078126-28.082031h-60.003906v28.082031zm0 0" fill="url(#d)"/><path d="m371.503906 470.703125h-342.734375c-9.820312 0-17.78125-7.960937-17.78125-17.78125v-411.183594c0-15.914062 12.902344-28.816406 28.820313-28.816406h331.695312c15.914063 0 28.816406 12.902344 28.816406 28.816406v400.148438c0 15.914062-12.902343 28.816406-28.816406 28.816406zm0 0" fill="url(#e)"/><path d="m380.867188 435.945312h-352.898438c-9.375 0-16.972656 7.59375-16.980469 16.964844v.015625c0 9.820313 7.960938 17.78125 17.78125 17.78125h342.734375c15.914063 0 28.816406-12.902343 28.816406-28.820312v-12.972657c-5.273437 4.386719-12.054687 7.03125-19.453124 7.03125zm0 0" fill="url(#g)"/><path d="m380.867188 0h-350.421876c-16.8125 0-30.445312 13.632812-30.445312 30.445312v422.476563h10.988281c0-9.375 7.601563-16.976563 16.980469-16.976563h352.894531c16.816407 0 30.445313-13.632812 30.445313-30.445312v-375.054688c.003906-16.8125-13.628906-30.445312-30.441406-30.445312zm0 0" fill="url(#h)"/><path d="m103.664062 319.941406h225.09375v25.097656h-225.09375zm0 0" fill="#fff"/><path d="m157.511719 365.351562h117.394531v25.101563h-117.394531zm0 0" fill="#fff"/><path d="m335.03125 138.757812c-.027344-.425781-.097656-.851562-.234375-1.269531-.050781-.152343-.121094-.296875-.183594-.441406-13.242187-53.914063-61.980469-94.03125-119.921875-94.03125-68.089844 0-123.484375 55.394531-123.484375 123.484375 0 68.085938 55.394531 123.480469 123.484375 123.480469 68.085938 0 123.480469-55.394531 123.480469-123.480469 0-9.535156-1.085937-18.820312-3.140625-27.742188zm-62.871094 117.261719-34.320312-18.042969 12.507812-33.0625 12.835938-1.242187zm-170.914062-89.519531c0-6.089844.488281-12.070312 1.417968-17.902344l20.503907 17.664063-20.613281 17.484375c-.859376-5.625-1.308594-11.386719-1.308594-17.246094zm55.972656-89.523438 34.324219 18.042969-12.492188 33.011719-12.894531 1.046875zm104.351562 116.765626-3.476562.335937c5.085938-7.980469 8.050781-17.4375 8.050781-27.578125 0-10.257812-3.027343-19.8125-8.21875-27.84375l3.648438.273438c-.089844 1.574218.558593 3.117187 1.789062 4.144531l27.613281 23.035156-27.675781 23.867187c-1.105469.953126-1.722656 2.332032-1.730469 3.765626zm-44.542968 33.289062c-.730469-.382812-1.535156-.574219-2.335938-.574219-.804687 0-1.605468.191407-2.335937.574219l-11.859375 6.234375-7.640625-20.191406c6.632812 3.121093 14.03125 4.875 21.835937 4.875 7.804688 0 15.203125-1.753907 21.835938-4.875l-7.644532 20.191406zm8.277344 15.695312-10.613282 28.050782-10.613281-28.050782 10.613281-5.578124zm-57.488282-48.820312c.039063-1.492188-.589844-2.941406-1.738281-3.933594l-27.460937-23.652344 27.433593-23.273437c1.1875-1.007813 1.828125-2.496094 1.765625-4.03125l3.59375-.289063c-5.164062 8.015626-8.171875 17.546876-8.171875 27.769532 0 10.199218 2.996094 19.707031 8.132813 27.714844zm44.539063-87.941406c1.460937.765625 3.207031.765625 4.671875 0l11.859375-6.234375 7.640625 20.191406c-6.632813-3.121094-14.03125-4.875-21.835938-4.875-7.804687 0-15.203125 1.753906-21.835937 4.875l7.640625-20.191406zm-8.28125-15.695313 10.617187-28.050781 10.613282 28.050781-10.613282 5.578125zm10.617187 117.644531c-22.835937 0-41.414062-18.578124-41.414062-41.414062s18.578125-41.414062 41.414062-41.414062c22.835938 0 41.414063 18.578124 41.414063 41.414062 0 22.832031-18.578125 41.414062-41.414063 41.414062zm60.617188-67.949218 42.285156 3.1875-18.914062 16.3125zm-12.066406-10.976563-12.917969-.972656-12.484375-32.996094 34.320312-18.042969zm-28.984376-43.425781-12.207031-32.261719c17.054688 1.097657 33.097657 5.976563 47.292969 13.816407zm-39.136718 0-35.082032-18.445312c14.191407-7.839844 30.234376-12.71875 47.292969-13.816407zm-64.203125 74.125-18.75-16.152344 41.785156-3.390625zm-.050781 13.207031 22.996093 19.808594-42.078125-3.625zm35.300781 30.945313 12.875 1.109375 12.5 33.023437-34.324219 18.046875zm28.953125 43.59375 12.210937 32.261718c-17.058593-1.097656-33.101562-5.976562-47.292969-13.816406zm39.136718 0 35.085938 18.445312c-14.195312 7.839844-30.238281 12.71875-47.292969 13.816406zm64.53125-74.804688 18.804688 15.6875-41.675781 4.035156zm7.707032-6.648437 20.210937-17.429688c.933594 5.847657 1.425781 11.839844 1.425781 17.949219 0 5.613281-.417968 11.128906-1.207031 16.527344zm16.742187-32.46875-49.941406-3.765625 9.273437-54.085938c19.101563 14.308594 33.554688 34.496094 40.667969 57.851563zm-176.429687-57.851563 9.300781 54.234375-50.097656 4.070313c7.058593-23.546875 21.574219-43.902344 40.796875-58.304688zm-40.914063 122.988282 50.238281 4.324218-9.324218 54.363282c-19.328125-14.480469-33.894532-34.980469-40.914063-58.6875zm176.675781 58.6875-9.367187-54.636719 50.535156-4.890625c-6.921875 24.0625-21.609375 44.875-41.167969 59.527344zm0 0" fill="url(#j)"/><path d="m214.691406 136.136719c-16.742187 0-30.363281 13.621093-30.363281 30.363281s13.621094 30.363281 30.363281 30.363281c16.742188 0 30.363282-13.621093 30.363282-30.363281s-13.621094-30.363281-30.363282-30.363281zm0 50.6875c-11.207031 0-20.324218-9.117188-20.324218-20.324219s9.117187-20.324219 20.324218-20.324219c11.207032 0 20.324219 9.117188 20.324219 20.324219s-9.117187 20.324219-20.324219 20.324219zm0 0" fill="url(#k)"/><path d="m28.769531 470.707031c-9.820312 0-17.777343-7.960937-17.777343-17.78125 0-4.6875 1.894531-8.933593 4.972656-12.007812 3.0625-3.066407 7.308594-4.972657 12-4.972657h47.304687v-435.945312h-44.824219c-16.8125 0-30.445312 13.632812-30.445312 30.445312v422.734376c0 16.8125 13.632812 30.445312 30.445312 30.445312h44.824219v-12.921875h-46.5zm0 0" fill="url(#l)"/><path d="m118.824219 470.703125-15.160157-15.160156h-60.003906v15.160156zm0 0" fill="url(#m)"/><path d="m95.769531 511.367188-19.589843-10.378907c-1.574219-.832031-3.460938-.832031-5.035157 0l-19.589843 10.378907c-3.582032 1.898437-7.894532-.699219-7.894532-4.75v-51.070313h60.003906v51.070313c0 4.050781-4.3125 6.648437-7.894531 4.75zm0 0" fill="url(#n)"/></svg>